# ProBuilder 5.0.6
# https://unity3d.com/unity/features/worldbuilding/probuilder
# 13.02.2023 2:41:52

mtllib ./Arena01.mtl
o Arena01

g Arch
v 10.06967 -0.76478 -0.08952141
v 0.06966591 -0.76478 -0.08952141
v 10.04833 1.430943 -0.08952141
v 0.1131077 0.29458 -0.08952141
v 0.06966591 -0.76478 -10.08952
v 0.1131077 0.29458 -10.08952
v 10.06967 -0.76478 -10.08952
v 10.04833 1.430943 -10.08952
v 9.869666 -0.6450231 -0.2895212
v 0.2696657 -0.6450231 -0.2895212
v 9.869666 -0.6450231 -9.889522
v 0.2696657 -0.6450231 -9.889522
v 0.2890854 0.5160117 -0.2895212
v 9.8269 1.606921 -0.2895212
v 9.8269 1.606921 -9.889522
v 0.2890854 0.5160117 -9.889522

vt 10.06967 -0.76478
vt 0.06966591 -0.76478
vt 10.06967 0.03521995
vt 0.06966591 0.03521995
vt -0.08952141 -0.76478
vt -10.08952 -0.76478
vt -0.08952141 0.03521995
vt -10.08952 0.03521995
vt -0.06966591 -0.76478
vt -10.06967 -0.76478
vt -0.06966591 0.03521995
vt -10.06967 0.03521995
vt 10.08952 -0.76478
vt 0.08952141 -0.76478
vt 10.08952 0.03521995
vt 0.08952141 0.03521995
vt -9.869666 -0.2895214
vt -0.2696659 -0.2895214
vt -9.869666 -9.889522
vt -0.2696659 -9.889522
vt 10.06967 -10.08952
vt 0.06966591 -10.08952
vt 10.06967 -0.08952141
vt 0.06966591 -0.08952141
vt 0.1022766 0.281101
vt 9.973968 1.877885
vt 0.254547 0.5922502
vt 9.73137 2.125162
vt -6.976337 -0.08952141
vt -6.976337 -10.08952
vt -6.693495 -0.2895212
vt -6.693495 -9.889522
vt -10.08952 0.3009931
vt -0.08952141 0.3009931
vt -9.889522 0.5838361
vt -0.2895212 0.5838361
vt -11.12328 -5.22743
vt -1.251588 -6.824213
vt -10.88068 -4.980152
vt -1.403858 -6.513064
vt -9.8269 1.606921
vt -0.2890854 0.5160117
vt -9.869666 -0.6450231
vt -0.2696657 -0.6450231
vt -9.889522 1.420047
vt -0.2895212 1.420047
vt -9.889522 -0.8323033
vt -0.2895212 -0.8323033
vt 0.2895212 0.5207742
vt 9.889522 0.5207742
vt 0.2895212 -0.6404231
vt 9.889522 -0.6404231
vt 0.2890854 0.5160117
vt 9.8269 1.606921
vt 0.2696657 -0.6450231
vt 9.869666 -0.6450231

vn 0 0 1
vn -0.9991602 0.04097313 0
vn 0 0 -1
vn 0.9999529 0.009715562 0
vn 0 1 0
vn 0 -1 0
vn -0.08035301 0.7025263 0.707107
vn 0.6221735 0.7828794 0
vn -0.7828786 0.6221745 0
vn -0.08035299 0.7025261 -0.7071072
vn -0.9998198 -0.01898711 0
vn 0.9998602 -0.01672384 0

usemtl ProBuilderDefault
f 3/3/1 4/4/1 2/2/1 1/1/1
f 4/7/2 6/8/2 5/6/2 2/5/2
f 6/11/3 8/12/3 7/10/3 5/9/3
f 8/15/4 3/16/4 1/14/4 7/13/4
f 11/19/5 12/20/5 10/18/5 9/17/5
f 1/23/6 2/24/6 5/22/6 7/21/6
f 14/28/7 13/27/7 4/25/7 3/26/7
f 15/32/8 14/31/8 3/29/8 8/30/8
f 13/36/9 16/35/9 6/33/9 4/34/9
f 16/40/10 15/39/10 8/37/10 6/38/10
f 9/43/3 10/44/3 13/42/3 14/41/3
f 11/47/11 9/48/11 14/46/11 15/45/11
f 10/51/12 12/52/12 16/50/12 13/49/12
f 12/55/1 11/56/1 15/54/1 16/53/1

